<?xml version="1.0" standalone="no"?>
<!DOCTYPE svg PUBLIC "-//W3C//DTD SVG 20010904//EN"
 "http://www.w3.org/TR/2001/REC-SVG-20010904/DTD/svg10.dtd">
<svg version="1.0" xmlns="http://www.w3.org/2000/svg"
 width="185.000000pt" height="185.000000pt" viewBox="0 0 185.000000 185.000000"
 preserveAspectRatio="xMidYMid meet">
<metadata>
Created by potrace 1.14, written by Peter Selinger 2001-2017
</metadata>
<g transform="translate(0.000000,185.000000) scale(0.100000,-0.100000)"
fill="#000000" stroke="none">
<path d="M751 1645 c-149 -42 -238 -133 -282 -290 -21 -74 -18 -281 4 -378 21
-87 80 -212 128 -270 30 -36 94 -77 121 -77 7 0 -7 10 -31 22 -75 37 -161 172
-196 307 -66 259 -12 504 133 605 51 35 141 66 192 66 129 0 240 -278 240
-600 0 -124 -14 -198 -54 -286 -28 -60 -56 -76 -183 -103 l-88 -19 55 -3 c46
-3 55 -7 55 -23 0 -15 -11 -23 -45 -31 -129 -33 -200 -108 -185 -195 5 -32 3
-39 -20 -54 -31 -20 -85 -102 -85 -128 0 -15 9 -18 63 -18 57 0 66 3 92 30
l29 30 19 -30 c10 -16 23 -30 28 -30 9 0 -2 19 -65 112 -25 38 -40 73 -43 102
-5 39 -2 47 28 80 22 23 55 43 91 56 74 26 98 26 98 1 0 -27 37 -51 78 -51 38
0 82 37 82 70 0 23 -4 23 76 9 56 -10 65 -15 89 -49 22 -32 25 -42 15 -59 -13
-25 -12 -25 -74 -6 -62 19 -264 19 -359 1 -72 -14 -109 -33 -42 -22 185 30
293 31 394 0 42 -12 51 -19 51 -38 0 -22 -36 -98 -82 -173 l-20 -33 49 0 c46
0 50 2 73 40 14 22 28 40 31 40 14 0 58 -42 64 -60 6 -17 15 -20 77 -20 70 0
70 0 64 25 -17 68 -76 148 -122 165 -19 8 -21 14 -17 52 9 85 -74 155 -199
165 -69 6 -88 20 -88 63 0 18 13 36 43 62 24 19 57 62 74 94 49 93 55 142 43
343 -14 236 -35 321 -98 414 -60 86 -185 124 -301 92z"/>
<path d="M855 1361 c-88 -37 -68 -181 25 -181 99 0 145 107 70 161 -31 23 -69
31 -95 20z"/>
<path d="M519 1331 c-20 -20 -29 -39 -29 -61 0 -45 47 -90 94 -90 53 0 91 37
91 90 0 84 -95 121 -156 61z"/>
<path d="M655 1170 c-4 -6 -39 -25 -78 -43 l-70 -31 31 -8 c18 -5 32 -12 32
-17 0 -16 -13 -20 -34 -10 l-21 10 21 -18 c30 -27 32 -42 18 -98 -18 -66 -18
-72 6 -78 11 -3 20 -12 20 -21 0 -14 20 -16 154 -16 84 0 174 3 200 6 l46 7 0
61 c0 33 -3 78 -6 99 l-7 37 -176 1 -176 0 60 23 c66 25 81 52 49 87 -18 20
-59 26 -69 9z m59 -26 c21 -21 15 -29 -39 -50 -50 -18 -50 -18 -59 12 -5 16 1
24 26 37 42 20 53 21 72 1z m-106 -57 c2 -10 -3 -17 -12 -17 -9 0 -16 2 -16 4
0 2 -3 12 -6 21 -5 13 -2 16 12 13 10 -2 20 -11 22 -21z m132 -73 c0 -4 -10
-33 -21 -65 -20 -54 -24 -59 -52 -59 -32 0 -31 -5 -12 80 5 23 -16 -23 -29
-63 -4 -13 -12 -16 -33 -11 -16 4 -29 8 -31 9 -1 1 6 24 17 51 17 46 21 49 55
50 20 0 39 3 43 7 8 9 63 9 63 1z m170 0 c0 -3 -7 -30 -16 -60 -15 -54 -16
-54 -55 -54 -21 0 -39 2 -39 4 0 3 20 62 35 104 4 12 75 18 75 6z m40 -89 c0
-55 9 -52 -203 -60 -107 -4 -156 -2 -152 5 4 6 69 10 169 10 l164 0 6 45 c9
58 16 58 16 0z m-30 5 c0 -16 -4 -30 -10 -30 -11 0 -14 43 -3 53 11 12 13 8
13 -23z"/>
<path d="M895 401 c-3 -5 -1 -12 5 -16 5 -3 10 1 10 9 0 18 -6 21 -15 7z"/>
<path d="M996 401 c-4 -5 -2 -12 3 -15 5 -4 12 -2 15 3 4 5 2 12 -3 15 -5 4
-12 2 -15 -3z"/>
<path d="M810 390 c0 -5 5 -10 10 -10 6 0 10 5 10 10 0 6 -4 10 -10 10 -5 0
-10 -4 -10 -10z"/>
<path d="M726 381 c-4 -5 -2 -12 3 -15 5 -4 12 -2 15 3 4 5 2 12 -3 15 -5 4
-12 2 -15 -3z"/>
<path d="M1080 370 c0 -5 5 -10 10 -10 6 0 10 5 10 10 0 6 -4 10 -10 10 -5 0
-10 -4 -10 -10z"/>
</g>
</svg>
